<?xml version="1.0" standalone="no"?><svg xmlns="http://www.w3.org/2000/svg" viewBox="0 0 1440 320"><path fill="#5000ca" fill-opacity="1" d="M0,160L21.8,170.7C43.6,181,87,203,131,202.7C174.5,203,218,181,262,160C305.5,139,349,117,393,106.7C436.4,96,480,96,524,117.3C567.3,139,611,181,655,197.3C698.2,213,742,203,785,186.7C829.1,171,873,149,916,170.7C960,192,1004,256,1047,277.3C1090.9,299,1135,277,1178,272C1221.8,267,1265,277,1309,256C1352.7,235,1396,181,1418,154.7L1440,128L1440,320L1418.2,320C1396.4,320,1353,320,1309,320C1265.5,320,1222,320,1178,320C1134.5,320,1091,320,1047,320C1003.6,320,960,320,916,320C872.7,320,829,320,785,320C741.8,320,698,320,655,320C610.9,320,567,320,524,320C480,320,436,320,393,320C349.1,320,305,320,262,320C218.2,320,175,320,131,320C87.3,320,44,320,22,320L0,320Z"></path></svg>