<?xml version="1.0" standalone="no"?><svg xmlns="http://www.w3.org/2000/svg" viewBox="0 0 1440 320"><path fill="#5000ca" fill-opacity="1" d="M0,224L40,202.7C80,181,160,139,240,106.7C320,75,400,53,480,64C560,75,640,117,720,138.7C800,160,880,160,960,138.7C1040,117,1120,75,1200,96C1280,117,1360,203,1400,245.3L1440,288L1440,320L1400,320C1360,320,1280,320,1200,320C1120,320,1040,320,960,320C880,320,800,320,720,320C640,320,560,320,480,320C400,320,320,320,240,320C160,320,80,320,40,320L0,320Z"></path></svg>